<svg xmlns:svg="http://www.w3.org/2000/svg" xmlns="http://www.w3.org/2000/svg" version="1.1" width="95" height="88"><rect id="backgroundrect" width="242.27642276422765" height="71.54471544715447" x="-242.2764129638672" y="-213.0081329345703" fill="none" stroke="none" style="" class=""/>
  <defs id="defs2999"/>
  
  
  
  
  
<g class="currentLayer" style=""><title>Layer 1</title><path d="m35.19608262847899,58.36816233764648 l-0.3185100000000001,6.848106 c0,0 25.19078,-2.021757 46.1849,-19.748027 c11.46114,-9.677148 9.31661,-25.242438 9.31661,-25.242438 c0,0 -0.3185200000000002,14.731391 -22.61468,26.675762 c-22.28787,11.939936 -32.56832,11.466597 -32.56832,11.466597 zm13.77584,-50.803393 l4.53887,3.74257 c0,0 -10.43794,12.421912 -30.17945,13.457325 c-13.7652,0.721964 -10.98882,-12.024001 -10.98882,-12.024001 c0,0 4.09857,6.5998850000000004 12.58141,5.414782 C35.753492628478995,16.642492337646484 49.210812628479005,7.883285937646484 48.97192262847901,7.564769337646484 z" id="path4974" style="fill:#bb100e;fill-opacity:0.99607843;stroke:none;" class=""/><path d="m71.34771262847903,61.394069337646485 l4.69812,3.8221990000000003 c0,0 -15.52532,12.873933000000001 -39.57568,13.457325 c-21.49591,0.521429 -27.3128,-8.520319 -27.3128,-8.520319 c0,0 12.42215,4.6184910000000015 29.70167,2.229616 c17.27953,-2.388874 32.48869,-10.988821 32.48869,-10.988821 zm-42.68121,-31.453511 l0.07960000000000003,6.370331 c0,0 23.80818,0.105979 39.65531,-17.040636 c9.14471,-9.8945823 -0.55933,-19.2165287 -2.86666,-19.27025251 c0,0 5.18113,7.93140321 -3.26479,16.80174951 c-5.96659,6.266424 -23.70601,12.851669 -33.60349,13.138808 z" id="path4976" style="fill:#042983;fill-opacity:0.99607843;stroke:none;" class=""/><path d="m53.11264262847902,81.93838833764649 l-0.23889000000000005,6.290702 c0,0 17.37941,0.552592 29.62205,-10.272159 c10.98315,-9.711137 12.18325,-17.040637 12.34251,-26.436876 c-0.79629,3.344424 -4.05592,15.154242 -20.54432,24.366518 c-11.51854,6.435555 -21.18135,6.051815 -21.18135,6.051815 zm-53.11264,-40.84975 c0,0 4.24822,12.67586 25.48133,11.227709 c25.50417,-1.7394470000000002 39.3368,-14.492504 39.3368,-14.492504 l-4.3796,-4.61849 c0,0 -16.56903,13.167843 -38.69977,13.696212 c-16.654040000000002,0.3976140000000002 -21.73876,-5.812927 -21.73876,-5.812927 z" id="path4978" style="fill:#007e17;fill-opacity:0.99607843;stroke:none;" class=""/></g></svg>